<svg width="246" height="123" viewBox="0 0 246 123" fill="none" xmlns="http://www.w3.org/2000/svg">
<g clip-path="url(#clip0_301_19)">
<path d="M211.986 49.1702V81.845C211.986 84.7618 212.418 89.0493 215.531 90.336H218.384C225.389 90.336 232.392 90.1644 239.394 89.5643C243.459 89.2209 243.978 88.1058 243.978 84.4185C243.978 80.988 243.372 74.1271 238.444 74.1271H228.846C228.673 74.1271 227.809 74.3839 227.722 74.3839H227.377C227.29 74.0406 227.204 72.0685 227.204 71.64C227.117 70.9534 227.204 67.8662 227.204 67.1796H236.196C237.147 67.1796 238.012 66.2362 238.185 65.463C238.358 62.7192 238.617 59.9753 238.617 57.4031C238.617 55.2581 237.233 54.9161 235.331 54.9161C232.738 54.9161 230.144 55.1729 227.722 55.1729V45.5681C230.49 45.5681 233.43 45.7398 236.455 45.7398H240.433C244.41 44.8815 244.756 41.8795 244.756 38.3638V38.1922C244.756 36.6486 244.756 33.1316 242.507 32.9613C238.963 32.6166 235.937 32.7045 232.392 32.7045C229.106 32.7045 225.82 32.9613 222.534 32.9613C220.459 32.9613 218.298 32.4463 216.223 32.4463C214.493 32.4463 212.159 33.4749 212.245 35.447C212.332 36.9919 212.332 43.7664 212.245 45.2248C212.245 45.8249 212.072 48.5701 211.986 49.1702ZM180.061 86.938C180.749 89.4115 182.212 89.4967 184.361 89.6683H184.619C186.511 90.0089 188.144 90.4347 190.036 90.4347H194.336C197.345 90.4347 198.807 90.5199 201.559 90.1779C202.849 90.0076 207.578 88.5586 207.578 86.6825V79.604C207.32 78.8362 207.836 73.5486 205.859 73.5486C198.979 72.9525 197.689 73.0376 196.83 73.1228C196.83 71.2467 196.572 62.803 196.572 60.9282V55.6406C196.572 50.2678 196.657 44.9801 197.088 39.6087C197.26 37.9867 197.603 36.3674 197.603 34.6616C197.603 33.5533 197.431 32.5301 196.142 32.4449L181.953 32.9559C180.921 32.9559 180.577 33.1262 180.319 34.1494C180.233 44.9815 179.803 55.6406 179.803 66.4713V73.8905C179.803 75.9369 179.976 85.0619 180.061 86.938ZM127.665 63.8018C127.665 72.7849 131.703 80.7109 139.155 86.0851C142.116 88.1977 144.18 89.3426 147.772 89.8724C152.079 90.5766 156.299 90.9294 160.876 90.9294C165.993 90.9294 174.161 88.9019 174.161 82.5627V59.3955C174.161 58.5439 173.648 57.7762 173.469 57.3355C172.007 55.0796 169.301 55.6081 166.159 55.3446C164.698 55.3446 164.056 55.0796 162.261 55.0796H160.158C158.632 55.0796 156.837 55.0796 155.311 55.3446C149.836 56.3137 149.836 58.4263 149.836 63.5356V64.0641C149.836 66.5295 149.836 69.7896 152.977 69.8761H158.992V75.8666C158.992 76.3938 156.928 76.3938 156.119 76.3938H155.85C152.439 76.3938 149.567 74.8097 147.053 72.52C146.155 71.8144 144.091 70.1411 143.552 68.7326C142.834 66.0902 142.745 63.4477 142.745 60.7174C142.745 52.3507 147.951 47.6821 156.299 47.6821H159.261C162.313 48.0335 164.736 50.4124 167.877 50.4124C169.134 50.4124 169.763 49.9718 170.481 48.9148C170.929 48.2106 172.635 44.776 173.084 44.1583C173.712 43.0135 173.469 42.5093 174.199 41.628C174.444 41.3347 175.418 40.6616 175.418 39.7547C175.418 33.7669 162.313 32.4449 158.183 32.4449C154.593 32.4449 150.106 32.9721 146.694 34.1183C134.486 38.1692 127.665 51.8222 127.665 63.8005V63.8018ZM86.6852 90.1522H86.9434C87.2894 90.2387 88.8411 90.7564 89.1871 90.9294H96.1698C99.7057 90.9294 99.7057 80.9232 99.8773 79.6296C100.137 78.4213 100.655 75.4882 100.655 75.403C100.655 75.23 100.826 74.5393 101.171 74.3677C102.293 74.0216 103.413 74.1082 104.534 74.1082H106.69C106.776 74.1082 107.638 74.2812 107.983 74.3677L109.017 74.6258V86.4433C109.017 89.1168 114.794 89.8941 116.519 89.8941C118.244 89.8941 120.228 90.1522 121.693 89.3764C121.866 89.2899 122.815 88.4275 122.986 88.341C124.022 87.8233 124.883 88.4275 125.229 87.2191V85.8405C125.229 75.3165 122.555 64.8791 121.175 54.5282C121.175 54.2687 121.175 53.924 121.089 53.5793C120.399 47.7997 118.503 32.4463 111.691 32.4463H101.602C97.8945 32.4463 95.0492 34.9468 93.584 38.3125C90.824 49.0932 88.7546 60.1348 86.4271 71.0899C85.2187 76.6966 83.3223 82.6479 83.3223 88.341C83.3223 89.6345 83.7549 90.6699 85.1335 90.6699C85.8229 90.6699 85.9959 90.1522 86.6852 90.1522ZM103.931 51.5086H105.053C105.914 51.5086 107.552 51.2504 107.983 52.2858C108.672 54.6998 108.759 55.8217 108.759 58.0641C108.759 58.4101 108.673 59.7901 108.673 60.0483C107.465 60.3065 106.776 60.3065 105.569 60.3065C105.396 60.3065 104.447 60.2213 104.189 60.2213C103.671 59.9618 103.413 59.0129 103.413 58.4953V53.0616C103.413 52.6305 103.671 51.8533 103.931 51.5086ZM47.2644 49.1702V81.845C47.2644 84.7618 47.6969 89.0493 50.8084 90.336H53.6618C60.666 90.336 67.6689 90.1644 74.6731 89.5643C78.7362 89.2209 79.2552 88.1058 79.2552 84.4185C79.2552 80.988 78.651 74.1271 73.7216 74.1271H64.1249C63.9505 74.1271 63.0868 74.3839 63.0003 74.3839H62.6543C62.5678 74.0406 62.4813 72.0685 62.4813 71.64C62.3948 70.9534 62.4813 67.8662 62.4813 67.1796H71.4738C72.4253 67.1796 73.289 66.2362 73.4621 65.463C73.6351 62.7192 73.8946 59.9753 73.8946 57.4031C73.8946 55.2581 72.5119 54.9161 70.6101 54.9161C68.0149 54.9161 65.4211 55.1729 63.0003 55.1729V45.5681C65.7671 45.5681 68.707 45.7398 71.7319 45.7398H75.7112C79.6877 44.8815 80.0338 41.8795 80.0338 38.3638V38.1922C80.0338 36.6486 80.0338 33.1316 77.786 32.9613C74.2406 32.6166 71.2143 32.7045 67.6689 32.7045C64.3844 32.7045 61.0985 32.9613 57.8127 32.9613C55.7379 32.9613 53.5753 32.4463 51.5005 32.4463C49.7704 32.4463 47.4374 33.4749 47.5226 35.447C47.6104 36.9919 47.6104 43.7664 47.5226 45.2248C47.5226 45.8249 47.3509 48.5701 47.2644 49.1702Z" fill="#3F55AB"/>
<path fill-rule="evenodd" clip-rule="evenodd" d="M34.8996 60.1741C37.7123 60.9391 39.4005 62.707 40.9009 64.7616C41.743 65.9091 42.3917 67.8298 42.3917 70.0424V70.2046C42.3917 73.4716 42.3917 75.1382 41.8849 78.2875C41.1347 83.0183 38.3692 86.4596 34.8536 89.3264C33.3533 90.5699 31.3853 90.8078 29.5105 90.8565C24.8703 90.9998 13.9301 90.9511 9.28987 90.5213C8.66985 90.4792 8.04872 90.4553 7.4273 90.4496C6.79777 90.4437 6.16855 90.4198 5.54039 90.378C2.63435 90.1874 1.50978 88.9452 1.46247 85.9811C1.44084 78.1537 1.55033 70.3155 1.65981 62.4705C1.78687 53.4104 1.91257 44.3422 1.83823 35.274C1.83823 33.602 2.44647 32.9802 4.04142 32.837C9.89946 32.3098 22.0589 32.1679 27.8237 33.3628C30.8689 33.9845 33.775 34.9874 36.3066 36.946C39.3073 39.2884 40.8522 42.3958 40.759 46.3129C40.713 48.1782 40.5711 50.0421 40.1967 51.906C39.4465 55.1554 38.0408 58.0709 34.9009 60.1741H34.8996ZM28.3238 46.6224C28.094 47.1171 27.825 47.6902 29.1861 47.4969C29.8741 47.3996 30.0174 47.7038 30.0174 48.0984C30.0174 49.0784 29.8809 50.5017 29.4862 51.287C28.9521 52.2651 28.1352 53.0594 27.1424 53.5659C25.634 53.136 25.3272 51.9628 25.2691 51.679C25.2028 51.3519 25.1379 51.2207 24.9393 51.2207C24.8081 51.2207 24.677 51.3519 24.677 51.5478C24.677 52.2007 24.9785 53.3509 25.9395 54.0295C25.441 54.1608 24.9276 54.2272 24.4121 54.2268H18.8798L18.2864 49.196C18.2864 49.0649 18.2202 49 18.0891 49H18.0229C17.8918 49 17.8255 49.0649 17.8255 49.196V54.2268C17.8255 54.8148 17.4957 55.4027 16.9686 55.665C16.6401 55.7947 16.3103 55.8609 15.9143 55.7298L15.8981 55.7244C13.2718 54.8769 11.4349 54.2863 11.4349 51.4167V48.8675C11.4349 48.0173 11.6336 47.2334 12.0297 46.5157C13.0826 44.2273 15.3885 42.5945 18.0891 42.5945H21.252C21.7926 42.5905 22.3265 42.7337 22.7901 43.0108C23.2551 43.2879 23.6349 43.6867 23.885 44.1624C24.1196 44.5862 24.4506 44.9488 24.8511 45.2212C25.2516 45.4935 25.7106 45.6679 26.1909 45.7303L28.2995 45.9912C28.6009 46.0291 28.4698 46.3089 28.3238 46.6211V46.6224ZM21.4479 46.5157C21.4479 47.105 21.9102 47.4969 22.436 47.4969C22.9631 47.4969 23.3592 47.0387 23.4254 46.517C23.4273 46.387 23.4029 46.258 23.3537 46.1376C23.3045 46.0173 23.2315 45.9081 23.1392 45.8166C23.0468 45.7251 22.9369 45.6532 22.8161 45.6051C22.6953 45.5571 22.566 45.534 22.436 45.5371C22.3062 45.5343 22.1773 45.5578 22.0568 45.6059C21.9363 45.6541 21.8267 45.7261 21.7346 45.8176C21.6425 45.909 21.5698 46.0181 21.5208 46.1383C21.4718 46.2584 21.4475 46.3872 21.4493 46.517L21.4479 46.5157ZM23.8674 81.4558C24.4824 81.3882 25.0082 81.0732 25.5042 80.6786C26.4098 80.9435 27.3533 80.9976 28.3589 80.8624C29.67 80.6705 30.7946 80.1568 31.6691 79.1945C32.4179 78.424 32.918 77.5265 33.0424 76.4371C33.2303 75.987 33.1046 75.7315 32.8545 75.6666C32.6058 75.5382 32.2936 75.6666 32.0435 75.987C30.9919 77.3373 29.3673 77.7441 27.4344 76.7196C27.4574 76.6385 27.4777 76.5574 27.4979 76.4763C27.8764 75.0625 27.8048 73.6203 27.6398 72.2064C27.4506 70.652 26.814 69.2936 26.0125 68.0501C25.4245 67.1486 24.7068 66.5998 23.9498 66.0199C23.7636 65.8781 23.5789 65.7344 23.3957 65.5888C22.0508 64.571 20.5896 64.0046 19.0569 63.6086C18.3473 63.4031 17.6944 63.095 17.0348 62.7814C16.7131 62.63 16.3914 62.4773 16.0616 62.3353C15.5075 62.092 15.0141 61.6825 14.5207 61.2729C13.8611 60.7242 13.1988 60.1754 12.3838 60.0159C11.6134 59.8132 11.4876 61.1472 11.4876 61.7704C11.1443 66.7133 11.0551 72.1186 11.5579 77.071C11.6755 78.5132 12.2419 79.5878 13.2799 80.3231C14.7884 81.3693 16.4158 81.7937 18.1594 81.7383C18.4676 81.7234 18.7676 81.7301 19.0677 81.7383C19.3691 81.745 19.6692 81.7518 19.976 81.7383C21.2761 81.6905 22.5741 81.5958 23.8674 81.4544V81.4558Z" fill="#3F55AB"/>
<path d="M208.982 111.339C208.982 116.838 210.944 121.565 217.163 121.565C218.413 121.565 219.832 121.329 220.847 120.459C223.956 117.777 224.226 111.106 224.226 107.384C224.226 104.97 223.449 103.025 221.861 101.282C221.219 100.611 220.406 99.8747 219.562 99.6057C218.379 99.2043 216.825 99.2705 215.642 99.2705C209.592 99.2705 208.982 106.914 208.982 111.341V111.339ZM215.439 111.642V110.469C215.473 110.032 215.541 108.222 215.574 107.92C215.608 107.383 216.183 105.439 216.892 105.439C217.399 105.439 217.805 105.741 217.974 106.21V109.999C217.974 110.201 217.872 111.507 217.838 111.844C217.805 112.413 217.399 114.525 216.723 114.525C215.405 114.525 215.439 112.413 215.439 111.642ZM196.232 107.015V119.553C196.232 120.894 197.45 121.565 198.633 121.565C200.424 121.565 202.62 121.263 202.62 119.051C202.62 116.77 202.485 113.989 202.417 111.844C202.384 111.473 202.35 110.166 202.316 109.999C202.215 109.127 202.046 108.925 202.012 108.121C202.012 107.82 202.046 106.513 202.046 106.211C203.093 106.211 204.108 106.545 205.156 106.545C205.257 106.545 205.697 106.511 205.798 106.511C207.454 106.11 207.42 103.628 207.42 102.254V100.611C207.082 99.6381 205.933 99.4719 205.054 99.4719C204.717 99.9409 193.934 99.6071 192.21 99.6071C191.873 99.6071 191.635 99.7733 191.569 100.075C191.569 100.378 191.534 101.685 191.534 101.954C191.534 102.489 191.569 103.796 191.569 103.863C191.569 104.701 191.603 106.345 192.819 106.345C193.901 106.345 194.982 106.042 196.097 106.042H196.131L196.232 107.015ZM178.33 107.015V119.553C178.33 120.894 179.548 121.565 180.73 121.565C182.521 121.565 184.718 121.263 184.718 119.051C184.718 116.77 184.582 113.989 184.515 111.844C184.481 111.473 184.447 110.166 184.413 109.999C184.312 109.127 184.143 108.925 184.109 108.121C184.109 107.82 184.143 106.513 184.143 106.211C185.191 106.211 186.206 106.545 187.253 106.545C187.355 106.545 187.794 106.511 187.895 106.511C189.551 106.11 189.517 103.628 189.517 102.254V100.611C189.179 99.6381 188.03 99.4719 187.152 99.4719C186.814 99.9409 176.032 99.6071 174.307 99.6071C173.971 99.6071 173.733 99.7733 173.666 100.075C173.666 100.378 173.631 101.685 173.631 101.954C173.631 102.489 173.666 103.796 173.666 103.863C173.666 104.701 173.7 106.345 174.917 106.345C175.998 106.345 177.079 106.042 178.195 106.042H178.228L178.33 107.015ZM155.746 113.955C156.118 119.52 159.161 121.666 164.704 121.666C167.711 121.666 168.928 119.855 169.571 117.206C169.976 115.597 170.247 114.324 170.482 112.748C170.821 110.266 170.956 107.82 170.956 105.338C170.956 103.83 171.024 102.724 170.889 101.283C170.889 101.182 170.855 101.047 170.855 100.947C170.754 99.8071 170.686 99.1029 169.232 99.1029H168.995C168.86 99.1029 168.083 99.2705 167.981 99.3043C166.765 99.4719 164.805 99.4395 164.805 101.182V112.245C164.805 113.384 164.533 115.262 163.048 115.262C162.574 115.262 162.134 115.028 161.796 114.625C161.796 114.524 161.729 113.955 161.695 113.821C161.658 113.53 161.625 113.24 161.594 112.949V104.669C161.729 103.696 161.729 103.127 161.729 102.155C161.729 101.987 161.695 101.182 161.695 101.014C161.56 100.344 161.425 99.8747 160.715 99.7071C160.073 99.5395 158.652 99.4381 158.01 99.4057H157.808C156.692 99.4057 156.05 99.7409 155.814 100.813C155.78 101.786 155.746 106.513 155.746 107.518C155.746 107.686 155.713 109.897 155.713 110.703C155.713 111.206 155.746 113.452 155.746 113.955ZM138.668 121.196C138.803 121.632 139.445 121.766 139.817 121.834H139.885C140.155 121.901 140.831 122.034 140.866 122.034H144.38C145.225 122.034 146.374 121.632 147.185 121.498C147.693 121.397 148.2 121.397 148.639 121.196C151.444 119.889 152.324 117.441 152.324 114.491V113.384C152.018 112.177 151.174 111.441 150.16 110.735C150.16 110.735 150.059 110.703 150.059 110.669C150.329 110.334 150.701 110.132 151.005 109.831C151.714 108.993 152.898 107.217 152.898 106.042V103.796C152.898 103.528 152.627 102.992 152.525 102.858C151.039 100.711 148.673 99.9409 146.171 99.5733C145.901 99.5733 144.651 99.5381 144.38 99.5381C143.907 99.5381 142.623 99.5733 142.556 99.5733C141.473 99.6057 140.493 99.9071 139.445 99.8409L139.04 100.21C139.108 106.914 138.668 113.552 138.668 120.258V121.196ZM144.076 114.759C144.076 114.29 143.975 113.853 144.515 113.853C145.462 113.853 146.273 113.955 146.273 114.994C146.273 115.565 146.07 116.67 145.293 116.77C145.022 116.804 144.279 116.905 144.279 116.872L144.178 116.77C144.178 116.77 144.11 115.798 144.076 115.363V114.759ZM144.718 104.432C145.597 104.432 146.916 104.5 146.916 105.707C146.916 106.11 146.34 107.383 145.867 107.383H144.853C144.752 106.379 144.718 105.406 144.718 104.434V104.432ZM227.257 121.463C227.358 121.9 227.934 122.135 228.339 122.269H230.671C230.772 122.235 231.617 122.034 231.82 121.934C232.293 121.798 233.274 121.263 233.274 120.66V112.045C233.511 112.245 233.646 112.782 233.747 112.951C235.133 115.732 236.518 118.581 237.904 121.331C238.783 122.336 239.932 122.135 241.183 122.135C242.636 122.135 242.737 120.391 242.805 119.319V119.084C242.906 118.045 243.075 117.039 243.109 116.034C243.143 115.497 243.176 111.106 243.21 110.569C243.21 110.401 243.312 108.893 243.312 108.725C243.345 108.424 243.379 106.279 243.413 106.044C243.48 104.669 243.717 102.792 243.717 101.417V100.277C243.413 99.1367 242.467 99.1367 241.453 99.1367H241.216C240.946 99.1367 240.237 99.1705 240.203 99.1705C240.169 99.1705 239.257 99.3732 238.917 99.4732C237.802 99.7409 238.174 101.249 238.14 102.121C238.039 103.999 237.904 106.413 237.701 108.322C237.701 108.289 237.633 108.222 237.633 108.189C236.991 107.115 236.484 105.742 235.944 104.669C235.133 102.993 234.727 101.014 233.239 99.8071C231.685 98.8353 229.792 99.1042 228.272 99.1042C228.135 99.1367 227.731 99.4381 227.731 99.6057C227.561 108.121 227.224 115.732 227.257 117.542V121.465V121.463ZM21.0762 23.635C20.7356 23.5336 20.4639 23.1619 20.3612 22.824C20.1909 17.662 20.1584 12.4663 20.1584 7.27055V1.83692C20.3612 1.19624 21.2803 1.12866 21.7561 0.959699C22.5387 0.925908 23.5254 0.859677 24.3756 0.859677C25.2595 0.859677 27.0964 0.994842 27.0964 2.24241V11.5215C27.6074 11.5215 27.437 11.6229 27.9818 11.4201H29.8876C29.8876 11.4201 29.989 10.947 29.989 10.7794C29.989 10.6781 30.0565 9.73325 30.0903 9.59808C30.0903 9.46292 30.1917 8.85468 30.2255 8.72087V3.25345C30.2255 2.00452 31.3487 1.05972 32.5733 1.05972H36.3498C37.7096 1.05972 37.6758 2.51139 37.6758 3.52378V5.85132C37.6758 11.1822 37.6758 16.5821 37.5068 21.9805C37.0635 23.566 35.1928 23.5322 33.7979 23.5322C32.9815 23.5322 32.3354 23.4646 31.4852 23.4309C31.1108 23.1605 30.8729 22.655 30.7702 22.2847V20.5627C30.7702 19.2813 30.8378 18.0324 30.8378 16.751C28.9333 16.751 28.1169 16.5821 26.2125 16.5821C26.2125 18.1 26.4841 19.5841 26.4841 21.1033C26.4841 22.6212 26.3138 23.1619 24.8176 23.4309C23.9336 23.566 23.151 23.6336 22.2656 23.6336H21.0762V23.635ZM41.0657 20.0923V7.23405C41.1166 6.71808 41.1504 6.20057 41.1671 5.68236C41.201 4.40077 41.201 3.11851 41.1671 1.83692C41.1333 1.06107 42.0524 0.655579 42.7323 0.655579C43.5487 0.655579 44.4002 0.858326 45.2153 0.858326C46.5075 0.858326 47.801 0.756952 49.0945 0.756952C50.4881 0.756952 51.6789 0.723161 53.0738 0.858326C53.9577 0.925908 53.9577 2.30864 53.9577 2.91553V2.98312C53.9577 4.36721 53.8226 5.54719 52.2574 5.88511H50.6922C49.5027 5.88511 48.3457 5.81752 47.2576 5.81752V9.59673C48.2092 9.59673 49.2297 9.49536 50.2502 9.49536C50.999 9.49536 51.5423 9.63052 51.5423 10.474C51.5423 11.4877 51.441 12.5663 51.3734 13.6463C51.3058 13.9504 50.9638 14.3221 50.5894 14.3221H47.0522C47.0522 14.5911 47.0184 15.8062 47.0522 16.0752C47.0522 16.2441 47.0873 17.0213 47.1198 17.1552H47.2563C47.2914 17.1552 47.6307 17.0538 47.6983 17.0538H51.4748C53.4144 17.0538 53.6509 19.753 53.6509 21.1033C53.6509 22.5536 53.4482 22.9929 51.8492 23.1281C49.0932 23.3633 46.3385 23.4309 43.5825 23.4309H42.4606C41.236 22.9253 41.0657 21.2371 41.0657 20.0909V20.0923ZM6.18643 21.1385V8.51812L6.08641 7.53817H6.05127C4.9294 7.53817 3.83997 7.84229 2.75189 7.84229C1.5273 7.84229 1.49351 6.18923 1.49351 5.3458C1.49351 5.27822 1.45972 3.96171 1.45972 3.4224C1.45972 3.15207 1.49351 1.83557 1.49351 1.5328C1.56109 1.22868 1.79898 1.05972 2.1396 1.05972C3.87376 1.05972 14.7261 1.39763 15.0654 0.924557C15.9507 0.924557 17.1064 1.09351 17.447 2.07346V3.72517C17.447 5.10926 17.4808 7.60711 15.8142 8.0099C15.7115 8.0099 15.2695 8.04504 15.1681 8.04504C14.1138 8.04504 13.0934 7.70713 12.0377 7.70713C12.0377 8.0099 12.0039 9.3264 12.0039 9.63052C12.0377 10.4415 12.208 10.6429 12.3108 11.5201C12.3445 11.6877 12.3783 13.0042 12.4121 13.3759C12.4797 15.5345 12.6162 18.3365 12.6162 20.6302C12.6162 22.8578 10.4049 23.1605 8.60183 23.1605C7.41238 23.1605 6.18643 22.4847 6.18643 21.1371V21.1385Z" fill="#3F55AB"/>
<path opacity="0.2" fill-rule="evenodd" clip-rule="evenodd" d="M65.5387 11.6242C65.5387 10.9072 65.8235 10.2196 66.3304 9.71268C66.8374 9.20571 67.525 8.9209 68.242 8.9209H68.9016C69.6185 8.9209 70.3061 9.20571 70.8131 9.71268C71.3201 10.2196 71.6049 10.9072 71.6049 11.6242C71.6049 12.3412 71.3201 13.0287 70.8131 13.5357C70.3061 14.0427 69.6185 14.3275 68.9016 14.3275H68.242C67.525 14.3275 66.8374 14.0427 66.3304 13.5357C65.8235 13.0287 65.5387 12.3412 65.5387 11.6242ZM79.4079 11.6242C79.4079 10.9072 79.6927 10.2196 80.1997 9.71268C80.7067 9.20571 81.3943 8.9209 82.1112 8.9209H83.4318C84.1488 8.9209 84.8363 9.20571 85.3433 9.71268C85.8503 10.2196 86.1351 10.9072 86.1351 11.6242C86.1351 12.3412 85.8503 13.0287 85.3433 13.5357C84.8363 14.0427 84.1488 14.3275 83.4318 14.3275H82.1112C81.3943 14.3275 80.7067 14.0427 80.1997 13.5357C79.6927 13.0287 79.4079 12.3412 79.4079 11.6242ZM93.9381 11.6242C93.9381 10.9072 94.223 10.2196 94.7299 9.71268C95.2369 9.20571 95.9245 8.9209 96.6414 8.9209H97.962C98.679 8.9209 99.3666 9.20571 99.8735 9.71268C100.38 10.2196 100.665 10.9072 100.665 11.6242C100.665 12.3412 100.38 13.0287 99.8735 13.5357C99.3666 14.0427 98.679 14.3275 97.962 14.3275H96.6428C95.9258 14.3275 95.2382 14.0427 94.7313 13.5357C94.2243 13.0287 93.9395 12.3412 93.9395 11.6242H93.9381ZM108.468 11.6242C108.468 10.9072 108.753 10.2196 109.26 9.71268C109.767 9.20571 110.455 8.9209 111.172 8.9209H112.492C113.209 8.9209 113.897 9.20571 114.404 9.71268C114.911 10.2196 115.196 10.9072 115.196 11.6242C115.196 12.3412 114.911 13.0287 114.404 13.5357C113.897 14.0427 113.209 14.3275 112.492 14.3275H111.172C110.455 14.3275 109.767 14.0427 109.26 13.5357C108.753 13.0287 108.468 12.3412 108.468 11.6242ZM122.999 11.6242C122.999 10.9072 123.283 10.2196 123.79 9.71268C124.297 9.20571 124.985 8.9209 125.702 8.9209H127.022C127.739 8.9209 128.427 9.20571 128.934 9.71268C129.441 10.2196 129.726 10.9072 129.726 11.6242C129.726 12.3412 129.441 13.0287 128.934 13.5357C128.427 14.0427 127.739 14.3275 127.022 14.3275H125.703C124.986 14.3275 124.299 14.0427 123.792 13.5357C123.285 13.0287 123 12.3412 123 11.6242H122.999ZM137.529 11.6242C137.529 10.9072 137.814 10.2196 138.321 9.71268C138.828 9.20571 139.515 8.9209 140.232 8.9209H141.553C142.27 8.9209 142.957 9.20571 143.464 9.71268C143.971 10.2196 144.256 10.9072 144.256 11.6242C144.256 12.3412 143.971 13.0287 143.464 13.5357C142.957 14.0427 142.27 14.3275 141.553 14.3275H140.232C139.515 14.3275 138.828 14.0427 138.321 13.5357C137.814 13.0287 137.529 12.3412 137.529 11.6242ZM152.059 11.6242C152.059 10.9072 152.344 10.2196 152.851 9.71268C153.358 9.20571 154.045 8.9209 154.762 8.9209H156.083C156.8 8.9209 157.487 9.20571 157.994 9.71268C158.501 10.2196 158.786 10.9072 158.786 11.6242C158.786 12.3412 158.501 13.0287 157.994 13.5357C157.487 14.0427 156.8 14.3275 156.083 14.3275H154.762C154.045 14.3275 153.358 14.0427 152.851 13.5357C152.344 13.0287 152.059 12.3412 152.059 11.6242ZM166.589 11.6242C166.589 10.9072 166.874 10.2196 167.381 9.71268C167.888 9.20571 168.576 8.9209 169.293 8.9209H170.613C171.33 8.9209 172.018 9.20571 172.525 9.71268C173.032 10.2196 173.316 10.9072 173.316 11.6242C173.316 12.3412 173.032 13.0287 172.525 13.5357C172.018 14.0427 171.33 14.3275 170.613 14.3275H169.293C168.576 14.3275 167.888 14.0427 167.381 13.5357C166.874 13.0287 166.589 12.3412 166.589 11.6242ZM181.119 11.6242C181.119 10.9072 181.404 10.2196 181.911 9.71268C182.418 9.20571 183.106 8.9209 183.823 8.9209H185.143C185.86 8.9209 186.548 9.20571 187.055 9.71268C187.562 10.2196 187.847 10.9072 187.847 11.6242C187.847 12.3412 187.562 13.0287 187.055 13.5357C186.548 14.0427 185.86 14.3275 185.143 14.3275H183.823C183.106 14.3275 182.418 14.0427 181.911 13.5357C181.404 13.0287 181.119 12.3412 181.119 11.6242ZM195.65 11.6242C195.65 10.9072 195.935 10.2196 196.441 9.71268C196.948 9.20571 197.636 8.9209 198.353 8.9209H199.674C200.391 8.9209 201.078 9.20571 201.585 9.71268C202.092 10.2196 202.377 10.9072 202.377 11.6242C202.377 12.3412 202.092 13.0287 201.585 13.5357C201.078 14.0427 200.391 14.3275 199.674 14.3275H198.353C197.636 14.3275 196.948 14.0427 196.441 13.5357C195.935 13.0287 195.65 12.3412 195.65 11.6242ZM210.18 11.6242C210.18 10.9072 210.465 10.2196 210.972 9.71268C211.479 9.20571 212.166 8.9209 212.883 8.9209H214.204C214.921 8.9209 215.608 9.20571 216.115 9.71268C216.622 10.2196 216.907 10.9072 216.907 11.6242C216.907 12.3412 216.622 13.0287 216.115 13.5357C215.608 14.0427 214.921 14.3275 214.204 14.3275H212.883C212.166 14.3275 211.479 14.0427 210.972 13.5357C210.465 13.0287 210.18 12.3412 210.18 11.6242ZM224.71 11.6242C224.71 10.9072 224.995 10.2196 225.502 9.71268C226.009 9.20571 226.696 8.9209 227.413 8.9209H228.734C229.451 8.9209 230.139 9.20571 230.646 9.71268C231.152 10.2196 231.437 10.9072 231.437 11.6242C231.437 12.3412 231.152 13.0287 230.646 13.5357C230.139 14.0427 229.451 14.3275 228.734 14.3275H227.413C226.696 14.3275 226.009 14.0427 225.502 13.5357C224.995 13.0287 224.71 12.3412 224.71 11.6242ZM239.24 11.6242C239.24 10.9072 239.525 10.2196 240.032 9.71268C240.539 9.20571 241.227 8.9209 241.944 8.9209H242.605C243.322 8.9209 244.009 9.20571 244.516 9.71268C245.023 10.2196 245.308 10.9072 245.308 11.6242C245.308 12.3412 245.023 13.0287 244.516 13.5357C244.009 14.0427 243.322 14.3275 242.605 14.3275H241.944C241.227 14.3275 240.539 14.0427 240.032 13.5357C239.525 13.0287 239.24 12.3412 239.24 11.6242ZM1.45972 111.156C1.45972 110.439 1.74453 109.751 2.25149 109.244C2.75846 108.737 3.44605 108.452 4.16301 108.452H4.85371C5.57067 108.452 6.25826 108.737 6.76523 109.244C7.27219 109.751 7.557 110.439 7.557 111.156C7.557 111.872 7.27219 112.56 6.76523 113.067C6.25826 113.574 5.57067 113.859 4.85371 113.859H4.16437C3.44741 113.859 2.75981 113.574 2.25285 113.067C1.74588 112.56 1.46107 111.872 1.46107 111.156H1.45972ZM15.9751 111.156C15.9751 110.439 16.2599 109.751 16.7668 109.244C17.2738 108.737 17.9614 108.452 18.6784 108.452H20.0598C20.7767 108.452 21.4643 108.737 21.9713 109.244C22.4782 109.751 22.763 110.439 22.763 111.156C22.763 111.872 22.4782 112.56 21.9713 113.067C21.4643 113.574 20.7767 113.859 20.0598 113.859H18.6797C17.9628 113.859 17.2752 113.574 16.7682 113.067C16.2612 112.56 15.9764 111.872 15.9764 111.156H15.9751ZM31.1811 111.156C31.1811 110.439 31.4659 109.751 31.9729 109.244C32.4799 108.737 33.1675 108.452 33.8844 108.452H35.2658C35.9828 108.452 36.6703 108.737 37.1773 109.244C37.6843 109.751 37.9691 110.439 37.9691 111.156C37.9691 111.872 37.6843 112.56 37.1773 113.067C36.6703 113.574 35.9828 113.859 35.2658 113.859H33.8858C33.1688 113.859 32.4812 113.574 31.9742 113.067C31.4673 112.56 31.1825 111.872 31.1825 111.156H31.1811ZM46.3872 111.156C46.3872 110.439 46.672 109.751 47.1789 109.244C47.6859 108.737 48.3735 108.452 49.0905 108.452H50.4718C51.1888 108.452 51.8764 108.737 52.3834 109.244C52.8903 109.751 53.1751 110.439 53.1751 111.156C53.1751 111.872 52.8903 112.56 52.3834 113.067C51.8764 113.574 51.1888 113.859 50.4718 113.859H49.0918C48.3748 113.859 47.6873 113.574 47.1803 113.067C46.6733 112.56 46.3885 111.872 46.3885 111.156H46.3872ZM61.5932 111.156C61.5932 110.439 61.878 109.751 62.385 109.244C62.8919 108.737 63.5795 108.452 64.2965 108.452H65.6779C66.3948 108.452 67.0824 108.737 67.5894 109.244C68.0964 109.751 68.3812 110.439 68.3812 111.156C68.3812 111.872 68.0964 112.56 67.5894 113.067C67.0824 113.574 66.3948 113.859 65.6779 113.859H64.2979C63.5809 113.859 62.8933 113.574 62.3863 113.067C61.8794 112.56 61.5946 111.872 61.5946 111.156H61.5932ZM76.7992 111.156C76.7992 110.439 77.0841 109.751 77.591 109.244C78.098 108.737 78.7856 108.452 79.5025 108.452H80.8839C81.6009 108.452 82.2885 108.737 82.7954 109.244C83.3024 109.751 83.5872 110.439 83.5872 111.156C83.5872 111.872 83.3024 112.56 82.7954 113.067C82.2885 113.574 81.6009 113.859 80.8839 113.859H79.5039C78.7869 113.859 78.0993 113.574 77.5924 113.067C77.0854 112.56 76.8006 111.872 76.8006 111.156H76.7992ZM92.0053 111.156C92.0053 110.439 92.2901 109.751 92.7971 109.244C93.304 108.737 93.9916 108.452 94.7086 108.452H96.09C96.8069 108.452 97.4945 108.737 98.0015 109.244C98.5085 109.751 98.7933 110.439 98.7933 111.156C98.7933 111.872 98.5085 112.56 98.0015 113.067C97.4945 113.574 96.8069 113.859 96.09 113.859H94.7099C93.993 113.859 93.3054 113.574 92.7984 113.067C92.2915 112.56 92.0066 111.872 92.0066 111.156H92.0053ZM107.211 111.156C107.211 110.439 107.496 109.751 108.003 109.244C108.51 108.737 109.198 108.452 109.915 108.452H111.296C112.013 108.452 112.701 108.737 113.208 109.244C113.715 109.751 113.999 110.439 113.999 111.156C113.999 111.872 113.715 112.56 113.208 113.067C112.701 113.574 112.013 113.859 111.296 113.859H109.916C109.199 113.859 108.511 113.574 108.004 113.067C107.497 112.56 107.213 111.872 107.213 111.156H107.211ZM122.417 111.156C122.417 110.439 122.702 109.751 123.209 109.244C123.716 108.737 124.404 108.452 125.121 108.452H125.811C126.528 108.452 127.216 108.737 127.723 109.244C128.23 109.751 128.515 110.439 128.515 111.156C128.515 111.872 128.23 112.56 127.723 113.067C127.216 113.574 126.528 113.859 125.811 113.859H125.121C124.404 113.859 123.716 113.574 123.209 113.067C122.702 112.56 122.417 111.872 122.417 111.156Z" fill="#3F55AB"/>
</g>
<defs>
<clipPath id="clip0_301_19">
<rect width="244.648" height="123" fill="white" transform="translate(0.675781)"/>
</clipPath>
</defs>
</svg>
