<svg width="595" height="60" viewBox="0 0 595 60" fill="none" xmlns="http://www.w3.org/2000/svg">
<g clip-path="url(#clip0_301_2)">
<rect width="595" height="60" fill="#4055AC"/>
<path d="M595 1483.65H297.5H0V23.3173C1.46025 23.4617 2.93361 23.9692 4.4364 24.5776C4.86631 24.7517 5.30124 24.9353 5.73831 25.1198C6.81892 25.5757 7.91306 26.0374 8.97612 26.3743C10.3018 26.7943 11.6328 27.2362 12.9705 27.6802C16.8299 28.9611 20.7445 30.2601 24.7427 31.1106C28.2615 31.859 31.8249 32.3275 35.375 32.7528C35.9894 32.8264 36.6033 32.8987 37.2164 32.9709C40.1528 33.3168 43.0734 33.6608 45.9696 34.1379C48.3051 34.5227 50.639 34.9163 52.9735 35.3099C60.6763 36.6088 68.3849 37.9086 76.167 38.8951C97.2062 41.5621 117.824 40.8749 138.902 39.3074C142.498 39.0399 146.074 38.6958 149.643 38.3523L149.646 38.3519C156.812 37.6622 163.951 36.975 171.175 36.916C173.984 36.8932 176.729 36.5564 179.442 36.151C180.268 36.0275 181.09 35.8979 181.909 35.7687C183.792 35.4718 185.663 35.1769 187.559 34.9603C193.549 34.2766 199.658 33.9226 205.71 33.572L206.698 33.5148C212.636 33.1698 218.393 32.0835 224.094 30.889C225.149 30.6681 226.201 30.4435 227.252 30.2192C231.895 29.2286 236.516 28.2426 241.22 27.5913C248.925 26.5245 256.707 25.8947 264.499 25.2639C269.673 24.8451 274.851 24.426 280.016 23.8783C303.086 21.4314 326.49 20.7601 349.751 20.0931C352.177 20.0236 354.601 19.9541 357.023 19.8826C363.346 19.6959 369.63 19.2521 375.899 18.8091C376.879 18.7399 377.859 18.6705 378.839 18.6023C386.089 18.0973 393.329 17.6475 400.629 17.6475C420.629 17.6475 441.5 19.2668 461.039 23.3031C466.692 24.4709 472.439 25.2 478.169 25.9099L478.847 25.9939L478.849 25.9941C484.357 26.676 489.845 27.3555 495.252 28.4049C507.77 30.8346 520.123 32.3822 532.987 32.3822C553.654 32.3822 574.821 31.4032 595 26.73V1483.65Z" fill="#FECC81"/>
</g>
<defs>
<clipPath id="clip0_301_2">
<rect width="595" height="60" fill="white"/>
</clipPath>
</defs>
</svg>
