<svg width="610" height="610" viewBox="0 0 610 610" fill="none" xmlns="http://www.w3.org/2000/svg">
<circle cx="305" cy="305" r="302.5" fill="black" stroke="black" stroke-width="5"/>
<circle cx="305" cy="305" r="290" fill="black" stroke="white" stroke-width="20"/>
<path fill-rule="evenodd" clip-rule="evenodd" d="M133.08 275.499C134.139 232.295 145.678 200.901 165.908 180.588C187.074 159.335 219.055 148.92 262.583 151.343L263.417 136.366C217.195 133.793 180.425 144.755 155.28 170.003C131.356 194.024 119.139 229.796 118.076 275.499H118V290.499H308.896C307.702 333.244 296.183 364.347 276.092 384.52C254.925 405.773 222.945 416.188 179.417 413.765L178.583 428.742C224.805 431.315 261.574 420.353 286.72 395.105C295.836 385.951 303.253 375.092 309 362.627V473.999H324V364.283C329.042 373.951 335.37 382.616 343.004 390.219C368.171 415.284 406.237 427.499 455.11 427.499V412.499C408.483 412.499 374.923 400.839 353.589 379.591C334.445 360.524 324.094 332.682 324 295.53V294.505C324.003 293.181 324.019 291.846 324.049 290.499H514.5V277.487C515.843 234.043 504.765 199.34 480.606 175.279C455.697 150.471 418.152 138.251 370 138.003V137.999L309 137.999V275.499H133.08ZM324 152.999V275.499H499.55C500.509 235.566 490.104 205.909 470.021 185.907C448.686 164.659 415.127 152.999 368.5 152.999L324 152.999Z" fill="#808080"/>
<path fill-rule="evenodd" clip-rule="evenodd" d="M122.08 275.5C123.139 232.296 134.678 200.901 154.908 180.589C176.074 159.336 208.055 148.921 251.583 151.344L252.417 136.367C206.195 133.794 169.425 144.756 144.28 170.004C120.356 194.025 108.139 229.796 107.076 275.5H107V290.5H297.896C296.702 333.245 285.183 364.348 265.092 384.52C243.925 405.773 211.945 416.189 168.417 413.766L167.583 428.743C213.805 431.315 250.574 420.354 275.72 395.105C284.836 385.952 292.253 375.093 298 362.627V474H313V364.284C318.042 373.952 324.37 382.617 332.004 390.22C357.171 415.285 395.237 427.5 444.11 427.5V412.5C397.483 412.5 363.923 400.84 342.589 379.592C323.445 360.525 313.094 332.683 313 295.53V294.505C313.003 293.182 313.019 291.847 313.049 290.5H503.5V277.487C504.843 234.044 493.765 199.341 469.606 175.28C444.697 150.472 407.152 138.252 359 138.004V138L298 138V275.5H122.08ZM313 153V275.5H488.55C489.509 235.567 479.104 205.909 459.021 185.908C437.686 164.66 404.127 153 357.5 153L313 153Z" fill="white"/>
<line x1="303" y1="474" x2="303" y2="138" stroke="black" stroke-width="10"/>
</svg>
