<svg width="419" height="58" viewBox="0 0 419 58" fill="none" xmlns="http://www.w3.org/2000/svg">
<path d="M271.003 56C240.851 56 210.777 53.9704 180.76 52.5952C154.215 51.379 127.653 50.2957 101.413 47.6427C91.0232 46.5922 80.8083 45.2851 70.5748 43.8509C62.7246 42.7506 54.7078 42.1181 46.8615 41.0264C38.4286 39.8532 30.3273 37.7698 22.3449 35.8805C16.0504 34.3907 7.39576 32.0762 3.62567 28.7612C-2.06391 23.7586 8.47211 18.0177 15.3601 15.6062C40.2354 6.89712 72.6337 5.83576 101.133 4.54041C156.375 2.02959 212.251 1.92061 267.651 2.02547C306.358 2.09873 346.862 3.03366 384.436 8.71908C393.041 10.021 402.113 11.6001 409.931 14.0392C413.627 15.1924 416.702 16.5624 416.846 19.0497C417.273 26.4521 405.624 31.3564 394.913 34.4876C369.201 42.0046 339.391 44.535 311.026 46.9462C277.768 49.7734 244.193 51.7327 210.655 53.2142C191.739 54.0497 173.034 54.6071 154.078 54.6071" stroke="#333333" stroke-width="3" stroke-linecap="round"/>
</svg>
